name Walk4.mot
datacolumns 19
datarows 15
range 1.45100000 1.46500000
endheader

                time	   L_ground_force_vx	   L_ground_force_vy	   L_ground_force_vz	   L_ground_force_px	   L_ground_force_py	   L_ground_force_pz	   R_ground_force_vx	   R_ground_force_vy	   R_ground_force_vz	   R_ground_force_px	   R_ground_force_py	   R_ground_force_pz	   L_ground_torque_x	   L_ground_torque_y	   L_ground_torque_z	   R_ground_torque_x	   R_ground_torque_y	   R_ground_torque_z	
          1.45100000	          0.00000000	          0.00000000	          0.00000000	          0.00000000	          0.00000000	          0.00000000	        -23.51537932	        720.54654921	        -41.78418685	          0.17659529	          0.00000000	          0.09543463	          0.00000000	          0.00000000	          0.00000000	          0.00000000	          1.97776265	          0.00000000	
          1.45200000	          0.00000000	          0.00000000	          0.00000000	          0.00000000	          0.00000000	          0.00000000	        -23.23942686	        718.82758347	        -41.67214682	          0.17697054	          0.00000000	          0.09549030	          0.00000000	          0.00000000	          0.00000000	          0.00000000	          1.95068777	          0.00000000	
          1.45300000	          0.00000000	          0.00000000	          0.00000000	          0.00000000	          0.00000000	          0.00000000	        -22.94306333	        717.03360564	        -41.57628867	          0.17732283	          0.00000000	          0.09549194	          0.00000000	          0.00000000	          0.00000000	          0.00000000	          1.92019561	          0.00000000	
          1.45400000	          0.00000000	          0.00000000	          0.00000000	          0.00000000	          0.00000000	          0.00000000	        -22.63906465	        715.20478842	        -41.50864426	          0.17767012	          0.00000000	          0.09543507	          0.00000000	          0.00000000	          0.00000000	          0.00000000	          1.89254628	          0.00000000	
          1.45500000	          0.00000000	          0.00000000	          0.00000000	          0.00000000	          0.00000000	          0.00000000	        -22.33851395	        713.37811280	        -41.47378021	          0.17804654	          0.00000000	          0.09533262	          0.00000000	          0.00000000	          0.00000000	          0.00000000	          1.87196421	          0.00000000	
          1.45600000	          0.00000000	          0.00000000	          0.00000000	          0.00000000	          0.00000000	          0.00000000	        -22.04493649	        711.59378594	        -41.46524261	          0.17847825	          0.00000000	          0.09521661	          0.00000000	          0.00000000	          0.00000000	          0.00000000	          1.86081341	          0.00000000	
          1.45700000	          0.00000000	          0.00000000	          0.00000000	          0.00000000	          0.00000000	          0.00000000	        -21.75671984	        709.89315279	        -41.46724748	          0.17896807	          0.00000000	          0.09512451	          0.00000000	          0.00000000	          0.00000000	          0.00000000	          1.85944418	          0.00000000	
          1.45800000	          0.00000000	          0.00000000	          0.00000000	          0.00000000	          0.00000000	          0.00000000	        -21.47698424	        708.31950041	        -41.46032058	          0.17950348	          0.00000000	          0.09508718	          0.00000000	          0.00000000	          0.00000000	          0.00000000	          1.86458527	          0.00000000	
          1.45900000	          0.00000000	          0.00000000	          0.00000000	          0.00000000	          0.00000000	          0.00000000	        -21.21980477	        706.89434466	        -41.43591531	          0.18006533	          0.00000000	          0.09511898	          0.00000000	          0.00000000	          0.00000000	          0.00000000	          1.87226909	          0.00000000	
          1.46000000	          0.00000000	          0.00000000	          0.00000000	          0.00000000	          0.00000000	          0.00000000	        -20.99797494	        705.59676612	        -41.40158721	          0.18063398	          0.00000000	          0.09521757	          0.00000000	          0.00000000	          0.00000000	          0.00000000	          1.88067409	          0.00000000	
          1.46100000	          0.00000000	          0.00000000	          0.00000000	          0.00000000	          0.00000000	          0.00000000	        -20.80553419	        704.38042797	        -41.36817799	          0.18119863	          0.00000000	          0.09537362	          0.00000000	          0.00000000	          0.00000000	          0.00000000	          1.88831489	          0.00000000	
          1.46200000	          0.00000000	          0.00000000	          0.00000000	          0.00000000	          0.00000000	          0.00000000	        -20.62268079	        703.18689691	        -41.34211645	          0.18175004	          0.00000000	          0.09556704	          0.00000000	          0.00000000	          0.00000000	          0.00000000	          1.89293465	          0.00000000	
          1.46300000	          0.00000000	          0.00000000	          0.00000000	          0.00000000	          0.00000000	          0.00000000	        -20.43271870	        701.95442127	        -41.32663062	          0.18226249	          0.00000000	          0.09576225	          0.00000000	          0.00000000	          0.00000000	          0.00000000	          1.89306997	          0.00000000	
          1.46400000	          0.00000000	          0.00000000	          0.00000000	          0.00000000	          0.00000000	          0.00000000	        -20.22424230	        700.65522369	        -41.31920392	          0.18270718	          0.00000000	          0.09593099	          0.00000000	          0.00000000	          0.00000000	          0.00000000	          1.88823902	          0.00000000	
          1.46500000	          0.00000000	          0.00000000	          0.00000000	          0.00000000	          0.00000000	          0.00000000	        -19.98679549	        699.31051874	        -41.31132901	          0.18308358	          0.00000000	          0.09607233	          0.00000000	          0.00000000	          0.00000000	          0.00000000	          1.87636070	          0.00000000	
